<?xml version="1.0" standalone="no"?>
<!DOCTYPE svg PUBLIC "-//W3C//DTD SVG 20010904//EN" "http://www.w3.org/TR/2001/REC-SVG-20010904/DTD/svg10.dtd">
<!-- Created using Krita: http://krita.org -->
<svg xmlns="http://www.w3.org/2000/svg" 
    
    width="400pt"
    height="300pt"
    viewBox="0 0 400pt 300pt">
<defs/>
<path id="shape0" transform="translate(0, -3.4367998988055)" fill="#e9b4b2" fill-rule="evenodd" stroke="#ffc5c3" stroke-width="4.9999999999996" stroke-linecap="square" stroke-linejoin="bevel" d="M0 3.4368L0 610.437L734.432 610.437L973 401.166L973 3.4368C968.861 -1.1456 644.528 -1.1456 0 3.4368Z"/><path id="shape1" transform="translate(0, 314.742390732601)" fill="#916216" fill-rule="evenodd" stroke="#000000" stroke-opacity="0" stroke-width="4.9999999999996" stroke-linecap="square" stroke-linejoin="bevel" d="M0 0L0 6.94602L163.614 55.5568L165.126 48.526C164.695 48.1721 109.653 31.9968 0 0Z"/><path id="shape2" transform="translate(105.152007701463, 184.88641354131)" fill="#916216" fill-rule="evenodd" stroke="#000000" stroke-opacity="0" stroke-width="4.9999999999996" stroke-linecap="square" stroke-linejoin="bevel" d="M2.166 0L0 4.0446L21.082 14.4156L86.893 15.483C92.7942 16.4572 98.9701 22.3726 100.933 27.822C101.909 59.2022 102.278 87.7323 103.225 118.614L107.965 118.614L106.363 26.4288C103.215 19.8276 96.7685 13.9364 90.625 11.0442L21.36 9.6768C16.5585 7.45212 10.1605 4.22652 2.166 0Z"/><path id="shape3" transform="translate(322.184020338102, 262.83313053615)" fill="#916216" fill-rule="evenodd" stroke="#000000" stroke-opacity="0" stroke-width="4.9999999999996" stroke-linecap="square" stroke-linejoin="bevel" d="M0 43.6264L5.42634 43.8173L5.69787 2.52156C4.64809 -0.971119 1.39505 -0.639346 0.895197 2.31155C0.937624 2.04681 0.639225 15.8184 0 43.6264Z"/><path id="shape4" transform="translate(348.386608856846, 239.648146631821)" fill="#916216" fill-rule="evenodd" stroke="#000000" stroke-opacity="0" stroke-width="4.9999999999996" stroke-linecap="square" stroke-linejoin="bevel" d="M15.9834 1.0834C18.1894 -0.823164 20.7381 -0.297535 20.1242 3.33242L16.0131 20.7175L13.3657 68.7292L8.74971 68.6185L10.9559 30.4811L1.84269 30.3818C-0.377112 30.0695 -0.815686 27.2233 1.77542 26.4563L10.9771 26.5291C11.2816 18.6722 12.9504 10.1903 15.9834 1.0834Z"/><path id="shape5" transform="translate(334.925941996815, 130.851882717383)" fill="#916216" fill-rule="evenodd" stroke="#000000" stroke-opacity="0" stroke-width="4.9999999999996" stroke-linecap="square" stroke-linejoin="bevel" d="M182.192 98.8974L180.84 104.207L118.32 86.2253L6.36479 4.88504L3.7386 8.89815C1.69197 9.3305 -0.0117764 8.13706 6.13172e-5 6.30532L4.0865 0.581729C5.7324 -0.265603 7.58558 -0.0832119 9.51283 0.467177L120.274 80.6614C119.177 80.3484 139.816 86.427 182.192 98.8974Z"/><path id="shape6" transform="translate(386.098000493302, 315.89085380648)" fill="#916216" fill-rule="evenodd" stroke="#000000" stroke-opacity="0" stroke-width="4.9999999999996" stroke-linecap="square" stroke-linejoin="bevel" d="M14.816 0.638347L14.9603 24.6594L8.9765 33.0207L9.1295 64.0734L8.028 64.1108L7.869 87.0068L0 87.0608L0.0770676 90.2057L11.651 90.114L11.853 72.1676L14.982 74.0981L47.8395 74.1716C49.6583 73.9575 49.2925 74.0885 50.901 74.7812C51.0349 75.9225 51.0376 76.3105 51.171 76.9817L54.939 77.1518L54.792 71.6276C54.0476 70.3307 52.8164 69.4659 51.381 69.0383L14.937 69.176C13.8277 68.8046 12.8131 68.2119 12.1385 67.3701L11.8505 65.1696L12.9815 64.311L12.998 36.2243L17.243 35.9435L17.012 43.7087L22.0455 43.0105L21.8588 33.8159L17.936 31.0025L18.179 24.185L20.6369 22.9106L20.495 0.0686466C15.6172 -0.116673 13.7242 0.0732268 14.816 0.638347Z"/><path id="shape7" transform="translate(422.796816525683, 317.847310246756)" fill="#916216" fill-rule="evenodd" stroke="#000000" stroke-opacity="0" stroke-width="4.9999999999996" stroke-linecap="square" stroke-linejoin="bevel" d="M0 0.00736601L1.53159 30.4246C2.93106 34.297 6.21891 34.2868 7.39917 31.5624L5.56634 0.793952C4.14857 0.213668 2.29312 -0.0485273 0 0.00736601Z"/><path id="shape8" transform="translate(435.804752699629, 318.149992206506)" fill="#916216" fill-rule="evenodd" stroke="#000000" stroke-opacity="0" stroke-width="4.9999999999996" stroke-linecap="square" stroke-linejoin="bevel" d="M0 0.193436L1.83282 20.3125C2.58188 21.8403 5.86252 21.6991 6.29608 20.1368L4.81964 0.239257C4.85641 -0.0636678 3.24986 -0.0789413 0 0.193436Z"/><path id="shape9" transform="translate(453.21003102544, 319.164821849095)" fill="#916216" fill-rule="evenodd" stroke="#000000" stroke-opacity="0" stroke-width="4.9999999999996" stroke-linecap="square" stroke-linejoin="bevel" d="M4.938 0L4.983 7.5006L0 8.0919L0.054 11.8692L6.762 11.5695L6.9 23.5467L9.09 23.8626C9.73806 25.6003 9.68149 27.2724 8.82 28.7091L6.168 29.0787L6.306 43.1997L11.8095 42.8876C12.5797 42.2034 13.4945 41.7227 14.5206 41.3984C15.9774 41.5637 17.2677 41.517 18.165 42.0852L56.206 43.5965C58.2591 43.3666 60.1738 43.2182 61.3869 44.73C61.8283 48.0424 62.6808 51.1988 63.1547 54.4527C64.5524 56.0187 65.0565 58.5272 65.042 60.9493L62.831 61.0492L62.8047 63.5724L65.63 63.7114L76.5812 95.4478C77.8715 96.5271 79.721 97.0489 81.7275 96.7727L181.727 96.6477C183.036 97.1352 184.48 98.5821 184.968 100.504L192.04 138.773L195.79 138.148L189.708 98.7872C190.242 97.5191 191.322 96.8924 192.516 97.0916L235.866 96.7024L236.004 101.833L226.054 115.617L234.275 123.572L237.722 120.921L231.358 115.176L239.931 103.773L240.108 93.432L189.285 92.4597C187.704 93.4771 187.181 93.074 184.727 92.9602C183.707 92.7219 183.145 92.3311 182.616 91.9292L79.54 91.9602L69.968 63.5332L67.644 61.3976L68.856 58.1576C65.9905 53.175 64.448 46.8836 63.28 39.668L17.1044 37.4821L10.839 38.6205L10.599 32.3106C11.966 30.2993 12.693 30.1136 13.944 28.5387C11.1075 22.3298 10.7538 19.8902 9.936 13.1058L9.621 0.0459C10.3858 0.0647653 8.8248 0.0494653 4.938 0Z"/><path id="shape10" transform="translate(500.38001968455, 303.499999999976)" fill="#916216" fill-rule="evenodd" stroke="#000000" stroke-opacity="0" stroke-width="4.9999999999996" stroke-linecap="square" stroke-linejoin="bevel" d="M1.044 0L0 4.96241L27.456 9.97361L28.584 4.58441C28.448 4.88681 19.268 3.35867 1.044 0Z"/><path id="shape11" transform="translate(517.911863503366, 248.03523347781)" fill="#916216" fill-rule="evenodd" stroke="#000000" stroke-opacity="0" stroke-width="4.9999999999996" stroke-linecap="square" stroke-linejoin="bevel" d="M1.17097 0L0 4.89516L39.4241 17.4868L45.829 13.624L147.814 40.4061L149.733 34.4098L44.1319 7.7513L37.3777 11.5468C37.0779 11.1089 25.009 7.26001 1.17097 0Z"/><path id="shape12" transform="translate(78.1965009990884, 475.002399036382)" fill="#916216" fill-rule="evenodd" stroke="#000000" stroke-opacity="0" stroke-width="4.9999999999996" stroke-linecap="square" stroke-linejoin="bevel" d="M0.162 0.682607L0 4.59761L17.637 3.98471L47.937 32.9422L51.558 29.6644L22.026 0.00220703C19.2165 -0.0251404 11.9285 0.20166 0.162 0.682607Z"/><path id="shape13" transform="translate(0, 581.303442016474)" fill="#916216" fill-rule="evenodd" stroke="#000000" stroke-opacity="0" stroke-width="4.9999999999996" stroke-linecap="square" stroke-linejoin="bevel" d="M41.1161 4.30713L0 0L0 4.57157L41.044 8.92736C41.1091 8.20187 41.1331 6.66179 41.1161 4.30713Z"/><path id="shape14" transform="translate(140.247999929225, 493.849799750782)" fill="#916216" fill-rule="evenodd" stroke="#000000" stroke-opacity="0" stroke-width="4.9999999999996" stroke-linecap="square" stroke-linejoin="bevel" d="M0 4.9626L19.206 9.315L39.915 38.1124L40.0317 45.6365L46.3617 51.9216L112.157 59.441C119.622 76.9695 125.685 89.9287 133.15 107.457C133.309 107.832 135.43 112.776 135.589 113.15L140.234 113.15L116.462 58.385C115.229 56.1162 113.597 55.297 110.603 54.5438L49.9446 48.9871L43.8564 41.6711L43.9604 37.9081L22.068 5.5458L1.458 0C1.7784 0.365698 1.2924 2.0199 0 4.9626Z"/><path id="shape15" transform="translate(600.117262777943, 0)" fill="#916216" fill-rule="evenodd" stroke="#000000" stroke-opacity="0" stroke-width="4.9999999999996" stroke-linecap="square" stroke-linejoin="bevel" d="M73.87 0L78.7487 0L107.781 53.5717C108.34 55.742 108.484 57.6946 107.442 59.4978L77.6488 76.2766C79.1905 83.914 80.2268 90.7591 81.7684 98.3965C80.8572 101.258 83.069 103.29 84.3479 102.883L96.9995 103.246L96.6516 107.423L81.0429 106.724C78.2947 108.022 76.3175 104.126 75.7651 98.5454L73.2152 78.0216L17.6494 90.775L3.04622 99.3472L0 95.5212L12.24 87.999L38.9447 81.6512L73.9487 71.1536L101.354 56.8886C102.426 55.6998 102.74 54.3396 102.067 52.5127C102.677 51.9656 93.278 34.4613 73.87 0Z"/><path id="shape16" transform="translate(701.120036893273, 0)" fill="#916216" fill-rule="evenodd" stroke="#000000" stroke-opacity="0" stroke-width="4.9999999999996" stroke-linecap="square" stroke-linejoin="bevel" d="M79.99 77.1086L85.822 76.952C85.8881 64.3084 89.1214 56.2315 94.678 48.7424L90.36 14.2088L95.406 13.7656L108.036 23.2318L120.005 20.125L125.505 20.625L126.755 13L221.755 18.5L244.755 49.125L243.318 203.375C208.702 205.541 175.749 208.083 138.84 203.274L142.368 182.408L132.432 181.76L131.808 200.811L19.632 188.65L0 196.815L4.416 203.684L18.576 196.837L130.512 208.652C139.16 209.692 147.543 210.601 155.822 211.278C174.907 212.839 193.437 213.165 213.38 211L242.755 209.5L242.16 252.614L244.255 261L268.323 292.919L162.706 383.332C153.983 388.019 151.8 388.022 146.082 390.235C144.98 389.062 142.854 390.434 141.751 389.262C140.526 387.96 140.59 384.82 139.365 383.517L137.243 391.207L145.488 396.196C152.875 393.689 160.527 390.394 167.649 385.638L271.88 295.281L271.88 289.06C264.45 278.06 257.104 269.801 249.408 259.155C248.553 257.888 247.878 253.527 247.022 252.26L248.13 209.813L271.88 207.75L271.88 202.725L248.318 203.875L249.88 48.25L227.755 16.25L245.38 0L237.63 0C232.922 4.16667 230.807 5.74012 223.505 12.5L123.462 5.7412L120.234 14.635L106.88 17.375C98.7282 8.50187 89.8729 6.6465 84.816 11.125L88.228 48.2456L79.942 63.9974C80.3153 66.8334 80.3313 71.2038 79.99 77.1086Z"/><path id="shape17" transform="translate(442.138773830458, 295.891865948022)" fill="#a9754b" fill-rule="evenodd" stroke="#000000" stroke-opacity="0" stroke-width="4.9999999999996" stroke-linecap="square" stroke-linejoin="bevel" d="M5.87136 15.627L5.78651 2.15195L0.143799 2.2245L0 0.2997L9.8295 0L10.0164 15.5812C9.49882 15.6881 8.11714 15.7034 5.87136 15.627Z"/><path id="shape18" transform="translate(530.062521529476, 98.0402039820853)" fill="#a9754b" fill-rule="evenodd" stroke="#000000" stroke-opacity="0" stroke-width="4.9999999999996" stroke-linecap="square" stroke-linejoin="bevel" d="M0 3.4598L2.5 3.2723L11.0625 14.2098L11 20.0223L15 20.0848L15.125 14.0848L23.0625 14.2098L23.0625 9.1473L19.0625 9.1473L19 11.9598L13.5 11.8973C10.1281 9.13954 7.14651 3.79161 3.8125 1.0848C2.22983 -0.200138 -0.108166 1.31232 0.181 0C0.513467 1.11472 0.453134 2.26798 0 3.4598Z"/><path id="shape19" transform="translate(41.6309105585386, 0)" fill="#f9d737" fill-rule="evenodd" stroke="#000000" stroke-opacity="0" stroke-width="4.9999999999996" stroke-linecap="square" stroke-linejoin="bevel" d="M430.153 0L436.869 0C471.2 35.8878 518.991 67.328 561.119 99C596.657 132.644 632.874 165.454 665.369 202.75C678.147 225.79 693.386 245.95 702.469 273.3C714.536 306.713 714.656 343.474 714.619 378.5L671.619 607L665.369 607L708.119 376.25C709.476 341.915 707.221 311.128 693.589 271.583C684.378 246.791 671.197 225.859 658.119 203C628.022 167.513 591.121 134.843 557.819 103.061L545.621 112.784C542.859 117.142 533.624 119.012 524.938 121.092L505.316 122.329L506.023 148.669L477.032 245.012L460.525 303.5C458.139 313.672 452.584 318.404 444.869 319.25L144.161 308.934L133.577 322.564C130.144 339.237 133.302 345.577 129.869 362.25C115.848 435.799 107.523 461.254 96.0781 504.697C64.8181 531.509 34.9723 555.138 4.41942 580.358C5.79126 586.75 3.75468 592.616 5.12652 599.008C5.73868 601.86 6.98924 604.148 7.6014 607L2.82843 607C2.40967 604.744 1.21425 603.031 0.795495 600.776C-0.405524 594.306 1.20102 586.032 0 579.562C32.6671 550.499 58.9916 531.286 91.4819 502.93C102.57 457.246 113.9 410.683 122.619 365.25C126.941 350.987 125.439 338.854 126.609 323.091L141.119 303.5L444.869 314.25C450.459 314.481 452.962 309.156 455.281 303.5L501.604 148.316L500.013 117.557L517.691 116.849C525.7 116.691 531.979 115.741 539.788 111.546L553.576 99.3485C504.827 66.9258 463.686 33.8096 430.153 0Z"/><path id="shape20" transform="translate(0, 73.6400046707789)" fill="#3d67ad" fill-rule="evenodd" stroke="#000000" stroke-opacity="0" stroke-width="4.9999999999996" stroke-linecap="square" stroke-linejoin="bevel" d="M0 0.554167L11.854 0L20.47 18.4788L36.994 29.7648L43.534 36.6012L39.754 55.5552L19.018 69.1308L4.654 69.0012L0 77.441C0.0226274 78.0723 0.0226274 52.4434 0 0.554167Z"/><path id="shape21" transform="translate(144.017857732804, 566.778350422027)" fill="#3d67ad" fill-rule="evenodd" stroke="#000000" stroke-opacity="0" stroke-width="4.9999999999996" stroke-linecap="square" stroke-linejoin="bevel" d="M0 30.547L11.0648 40.2216L40.2881 30.3943L61.094 40.2216L81.4587 28.5004L115.434 40.2216L122.392 33.113L117.233 16.1288L96.1892 6.6287L69.7151 5.89557L62.7911 0L57.9714 8.09496L25.5577 14.9069C25.0146 15.6604 16.4954 20.8738 0 30.547Z"/><path id="shape22" transform="translate(287.656706216694, 595.400902625822)" fill="#3d67ad" fill-rule="evenodd" stroke="#000000" stroke-opacity="0" stroke-width="4.9999999999996" stroke-linecap="square" stroke-linejoin="bevel" d="M5.43058 0L0 11.5991L26.9493 11.5991L20.2289 2.04665C17.129 1.1506 12.1962 0.468388 5.43058 0Z"/><path id="shape23" fill="#3d67ad" fill-rule="evenodd" stroke="#000000" stroke-opacity="0" stroke-width="4.9999999999996" stroke-linecap="square" stroke-linejoin="bevel" d="M0 34.4396L74.945 25.6862C83.333 20.5066 91.721 15.8368 100.109 11.8352C103.73 16.3999 106.414 18.6133 110.354 21.8185L247.693 7.3768C256.115 8.29487 251.673 8.49454 271.47 6.6626C279.927 5.99594 288.246 10.8188 294.687 12.7279C302.833 12.1275 309.047 9.58232 317.137 8.13173C324.221 8.98358 328.846 11.8477 335.169 15.026L360.625 0L355.186 0L335.152 11.9544C329.235 8.96857 323.444 6.94599 317.402 5.3586C309.749 7.36132 302.19 9.26152 294.864 9.54594C285.469 6.10107 279.246 3.93055 270.375 3.75C265.08 3.64223 262.069 4.90439 256.503 4.94975C252.857 4.71252 248.991 4.05815 245.379 3.83895C200.17 9.08281 156.031 13.2968 111.723 18.5616C106.792 15.9187 104.187 11.9464 100.753 8.4482C91.2636 12.769 82.1174 17.776 73.097 23.0348L0 30.665C0 27.9714 0 29.2296 0 34.4396Z"/>
</svg>
