<?xml version="1.0" encoding="UTF-8"?>
<svg xmlns="http://www.w3.org/2000/svg" xmlns:xlink="http://www.w3.org/1999/xlink" width="500px" height="312px" viewBox="0 0 499 312" version="1.1">
<g id="surface1">
<path style="fill-rule:evenodd;fill:rgb(91.372549%,70.588235%,69.803922%);fill-opacity:1;stroke-width:5;stroke-linecap:square;stroke-linejoin:bevel;stroke:rgb(100%,77.254902%,76.470588%);stroke-opacity:1;stroke-miterlimit:4;" d="M 0 3.4368 L 0 610.439144 L 734.435671 610.439144 L 972.997996 401.166788 L 972.997996 3.4368 C 968.862926 -1.147305 644.530261 -1.147305 0 3.4368 Z M 0 3.4368 " transform="matrix(0.512952,0,0,0.513834,0,-1.765945)"/>
<path style=" stroke:none;fill-rule:evenodd;fill:rgb(56.862745%,38.431373%,8.627451%);fill-opacity:1;" d="M 0 161.726562 L 0 165.292969 L 83.925781 190.273438 L 84.703125 186.660156 C 84.480469 186.476562 56.246094 178.167969 0 161.726562 Z M 0 161.726562 "/>
<path style=" stroke:none;fill-rule:evenodd;fill:rgb(56.862745%,38.431373%,8.627451%);fill-opacity:1;" d="M 55.050781 95 L 53.9375 97.078125 L 64.753906 102.40625 L 98.511719 102.957031 C 101.535156 103.457031 104.703125 106.496094 105.710938 109.296875 C 106.210938 125.421875 106.402344 140.082031 106.886719 155.949219 L 109.320312 155.949219 L 108.496094 108.582031 C 106.882812 105.1875 103.574219 102.160156 100.425781 100.675781 L 64.894531 99.972656 C 62.433594 98.828125 59.148438 97.171875 55.050781 95 Z M 55.050781 95 "/>
<path style=" stroke:none;fill-rule:evenodd;fill:rgb(56.862745%,38.431373%,8.627451%);fill-opacity:1;" d="M 165.265625 157.46875 L 168.046875 157.566406 L 168.1875 136.347656 C 167.648438 134.554688 165.980469 134.722656 165.722656 136.242188 C 165.746094 136.105469 165.59375 143.179688 165.265625 157.46875 Z M 165.265625 157.46875 "/>
<path style=" stroke:none;fill-rule:evenodd;fill:rgb(56.862745%,38.431373%,8.627451%);fill-opacity:1;" d="M 186.90625 123.695312 C 188.035156 122.714844 189.34375 122.988281 189.027344 124.851562 L 186.917969 133.785156 L 185.5625 158.453125 L 183.195312 158.398438 L 184.324219 138.800781 L 179.652344 138.75 C 178.511719 138.589844 178.289062 137.128906 179.617188 136.734375 L 184.335938 136.769531 C 184.492188 132.734375 185.347656 128.375 186.90625 123.695312 Z M 186.90625 123.695312 "/>
<path style=" stroke:none;fill-rule:evenodd;fill:rgb(56.862745%,38.431373%,8.627451%);fill-opacity:1;" d="M 265.257812 118.054688 L 264.5625 120.78125 L 232.492188 111.542969 L 175.066406 69.746094 L 173.71875 71.808594 C 172.667969 72.03125 171.796875 71.417969 171.800781 70.476562 L 173.898438 67.535156 C 174.742188 67.101562 175.691406 67.195312 176.679688 67.476562 L 233.496094 108.683594 C 232.933594 108.523438 243.519531 111.644531 265.257812 118.054688 Z M 265.257812 118.054688 "/>
<path style=" stroke:none;fill-rule:evenodd;fill:rgb(56.862745%,38.431373%,8.627451%);fill-opacity:1;" d="M 205.648438 162.644531 L 205.722656 174.984375 L 202.65625 179.28125 L 202.734375 195.238281 L 202.167969 195.257812 L 202.085938 207.023438 L 198.050781 207.050781 L 198.089844 208.667969 L 204.027344 208.617188 L 204.128906 199.398438 L 205.734375 200.390625 L 222.589844 200.425781 C 223.523438 200.316406 223.335938 200.382812 224.160156 200.742188 C 224.226562 201.328125 224.230469 201.527344 224.296875 201.871094 L 226.230469 201.957031 L 226.15625 199.121094 C 225.773438 198.453125 225.140625 198.007812 224.40625 197.789062 L 205.710938 197.859375 C 205.144531 197.667969 204.621094 197.363281 204.277344 196.933594 L 204.128906 195.800781 L 204.707031 195.359375 L 204.71875 180.929688 L 206.894531 180.785156 L 206.777344 184.773438 L 209.359375 184.414062 L 209.261719 179.691406 L 207.25 178.246094 L 207.375 174.742188 L 208.636719 174.085938 L 208.5625 162.351562 C 206.0625 162.253906 205.089844 162.351562 205.648438 162.644531 Z M 205.648438 162.644531 "/>
<path style=" stroke:none;fill-rule:evenodd;fill:rgb(56.862745%,38.431373%,8.627451%);fill-opacity:1;" d="M 216.875 163.324219 L 217.660156 178.953125 C 218.378906 180.945312 220.066406 180.9375 220.671875 179.539062 L 219.730469 163.730469 C 219.003906 163.429688 218.050781 163.296875 216.875 163.324219 Z M 216.875 163.324219 "/>
<path style=" stroke:none;fill-rule:evenodd;fill:rgb(56.862745%,38.431373%,8.627451%);fill-opacity:1;" d="M 223.546875 163.574219 L 224.488281 173.914062 C 224.871094 174.699219 226.554688 174.625 226.777344 173.824219 L 226.019531 163.597656 C 226.039062 163.445312 225.214844 163.4375 223.546875 163.574219 Z M 223.546875 163.574219 "/>
<path style=" stroke:none;fill-rule:evenodd;fill:rgb(56.862745%,38.431373%,8.627451%);fill-opacity:1;" d="M 235.007812 163.996094 L 235.03125 167.851562 L 232.476562 168.15625 L 232.503906 170.097656 L 235.945312 169.941406 L 236.015625 176.097656 L 237.136719 176.257812 C 237.46875 177.152344 237.441406 178.011719 237 178.75 L 235.640625 178.9375 L 235.710938 186.195312 L 238.53125 186.035156 C 238.929688 185.683594 239.398438 185.4375 239.921875 185.269531 C 240.671875 185.355469 241.332031 185.332031 241.792969 185.621094 L 261.304688 186.398438 C 262.359375 186.28125 263.339844 186.203125 263.964844 186.980469 C 264.191406 188.683594 264.628906 190.304688 264.871094 191.976562 C 265.585938 192.78125 265.847656 194.070312 265.839844 195.316406 L 264.703125 195.367188 L 264.691406 196.664062 L 266.140625 196.734375 L 271.757812 213.042969 C 272.417969 213.597656 273.367188 213.863281 274.398438 213.722656 L 325.691406 213.660156 C 326.363281 213.910156 327.105469 214.652344 327.355469 215.640625 L 330.984375 235.304688 L 332.90625 234.984375 L 329.785156 214.757812 C 330.058594 214.105469 330.613281 213.785156 331.226562 213.886719 L 353.464844 213.6875 L 353.535156 216.324219 L 348.429688 223.40625 L 352.648438 227.492188 L 354.414062 226.132812 L 351.152344 223.179688 L 355.546875 217.320312 L 355.640625 212.007812 L 329.570312 211.507812 C 328.757812 212.03125 328.488281 211.824219 327.230469 211.765625 C 326.707031 211.640625 326.417969 211.441406 326.148438 211.234375 L 273.273438 211.25 L 268.367188 196.644531 L 267.171875 195.546875 L 267.796875 193.882812 C 266.324219 191.320312 265.535156 188.089844 264.933594 184.378906 L 241.25 183.257812 L 238.035156 183.84375 L 237.910156 180.601562 C 238.613281 179.566406 238.984375 179.472656 239.628906 178.660156 C 238.171875 175.472656 237.992188 174.21875 237.570312 170.730469 L 237.410156 164.019531 C 237.800781 164.03125 237 164.023438 235.007812 163.996094 Z M 235.007812 163.996094 "/>
<path style=" stroke:none;fill-rule:evenodd;fill:rgb(56.862745%,38.431373%,8.627451%);fill-opacity:1;" d="M 257.207031 155.949219 L 256.671875 158.5 L 270.753906 161.074219 L 271.332031 158.304688 C 271.261719 158.460938 266.554688 157.675781 257.207031 155.949219 Z M 257.207031 155.949219 "/>
<path style=" stroke:none;fill-rule:evenodd;fill:rgb(56.862745%,38.431373%,8.627451%);fill-opacity:1;" d="M 266.265625 127.449219 L 265.664062 129.964844 L 285.886719 136.433594 L 289.171875 134.449219 L 341.484375 148.210938 L 342.46875 145.128906 L 288.300781 131.433594 L 284.835938 133.382812 C 284.683594 133.15625 278.492188 131.179688 266.265625 127.449219 Z M 266.265625 127.449219 "/>
<path style=" stroke:none;fill-rule:evenodd;fill:rgb(56.862745%,38.431373%,8.627451%);fill-opacity:1;" d="M 40.195312 244.421875 L 40.109375 246.433594 L 49.15625 246.121094 L 64.699219 261 L 66.558594 259.316406 L 51.410156 244.074219 C 49.96875 244.058594 46.230469 244.175781 40.195312 244.421875 Z M 40.195312 244.421875 "/>
<path style=" stroke:none;fill-rule:evenodd;fill:rgb(56.862745%,38.431373%,8.627451%);fill-opacity:1;" d="M 21.089844 300.90625 L 0 298.695312 L 0 301.042969 L 21.054688 303.28125 C 21.085938 302.90625 21.097656 302.117188 21.089844 300.90625 Z M 21.089844 300.90625 "/>
<path style=" stroke:none;fill-rule:evenodd;fill:rgb(56.862745%,38.431373%,8.627451%);fill-opacity:1;" d="M 71.941406 256.308594 L 81.792969 258.542969 L 92.414062 273.339844 L 92.476562 277.207031 L 95.722656 280.4375 L 129.472656 284.300781 C 133.300781 293.304688 136.410156 299.964844 140.238281 308.972656 C 140.320312 309.164062 141.410156 311.703125 141.492188 311.898438 L 143.875 311.898438 L 131.679688 283.757812 C 131.046875 282.589844 130.210938 282.171875 128.675781 281.785156 L 97.558594 278.929688 L 94.4375 275.167969 L 94.488281 273.234375 L 83.261719 256.605469 L 72.6875 253.757812 C 72.851562 253.945312 72.601562 254.792969 71.941406 256.308594 Z M 71.941406 256.308594 "/>
<path style=" stroke:none;fill-rule:evenodd;fill:rgb(56.862745%,38.431373%,8.627451%);fill-opacity:1;" d="M 345.722656 0 L 348.226562 0 L 363.117188 27.527344 C 363.40625 28.640625 363.480469 29.644531 362.945312 30.570312 L 347.660156 39.195312 C 348.453125 43.117188 348.984375 46.636719 349.773438 50.558594 C 349.308594 52.03125 350.441406 53.074219 351.097656 52.863281 L 357.585938 53.050781 L 357.410156 55.199219 L 349.402344 54.839844 C 347.992188 55.503906 346.980469 53.503906 346.695312 50.636719 L 345.386719 40.089844 L 316.886719 46.644531 L 309.394531 51.046875 L 307.832031 49.082031 L 314.109375 45.21875 L 327.808594 41.957031 L 345.765625 36.5625 L 359.820312 29.230469 C 360.371094 28.621094 360.53125 27.921875 360.1875 26.984375 C 360.5 26.703125 355.679688 17.707031 345.722656 0 Z M 345.722656 0 "/>
<path style=" stroke:none;fill-rule:evenodd;fill:rgb(56.862745%,38.431373%,8.627451%);fill-opacity:1;" d="M 400.671875 39.621094 L 403.664062 39.539062 C 403.699219 33.042969 405.355469 28.894531 408.207031 25.046875 L 405.992188 7.300781 L 408.578125 7.074219 L 415.058594 11.9375 L 421.199219 10.339844 L 424.019531 10.597656 L 424.660156 6.679688 L 473.390625 9.507812 L 485.1875 25.242188 L 484.453125 104.5 C 466.695312 105.613281 449.792969 106.921875 430.859375 104.449219 L 432.667969 93.726562 L 427.574219 93.394531 L 427.253906 103.183594 L 369.710938 96.933594 L 359.640625 101.128906 L 361.90625 104.660156 L 369.167969 101.140625 L 426.585938 107.210938 C 431.023438 107.746094 435.324219 108.214844 439.570312 108.5625 C 449.359375 109.363281 458.863281 109.53125 469.09375 108.417969 L 484.164062 107.648438 L 483.859375 129.800781 L 484.933594 134.109375 L 497.277344 150.511719 L 443.101562 196.96875 C 438.628906 199.378906 437.507812 199.378906 434.574219 200.515625 C 434.007812 199.914062 432.917969 200.617188 432.351562 200.015625 C 431.722656 199.347656 431.757812 197.734375 431.128906 197.0625 L 430.039062 201.015625 L 434.269531 203.578125 C 438.058594 202.289062 441.984375 200.597656 445.636719 198.152344 L 499.101562 151.726562 L 499.101562 148.527344 C 495.292969 142.875 491.523438 138.632812 487.574219 133.164062 C 487.136719 132.511719 486.789062 130.269531 486.351562 129.621094 L 486.921875 107.808594 L 499.101562 106.75 L 499.101562 104.167969 L 487.015625 104.757812 L 487.816406 24.792969 L 476.46875 8.351562 L 485.507812 0 L 481.535156 0 C 479.117188 2.140625 478.035156 2.949219 474.289062 6.421875 L 422.972656 2.949219 L 421.316406 7.519531 L 414.464844 8.929688 C 410.285156 4.367188 405.742188 3.414062 403.148438 5.714844 L 404.898438 24.789062 L 400.648438 32.882812 C 400.839844 34.339844 400.847656 36.585938 400.671875 39.621094 Z M 400.671875 39.621094 "/>
<path style=" stroke:none;fill-rule:evenodd;fill:rgb(66.27451%,45.882353%,29.411765%);fill-opacity:1;" d="M 229.808594 160.070312 L 229.765625 153.144531 L 226.871094 153.183594 L 226.796875 152.191406 L 231.839844 152.039062 L 231.933594 160.046875 C 231.667969 160.101562 230.960938 160.109375 229.808594 160.070312 Z M 229.808594 160.070312 "/>
<path style=" stroke:none;fill-rule:evenodd;fill:rgb(66.27451%,45.882353%,29.411765%);fill-opacity:1;" d="M 271.898438 52.152344 L 273.179688 52.058594 L 277.570312 57.679688 L 277.539062 60.664062 L 279.589844 60.695312 L 279.65625 57.613281 L 283.726562 57.679688 L 283.726562 55.078125 L 281.675781 55.078125 L 281.644531 56.523438 L 278.820312 56.488281 C 277.09375 55.074219 275.5625 52.324219 273.851562 50.933594 C 273.039062 50.273438 271.839844 51.050781 271.988281 50.375 C 272.160156 50.949219 272.128906 51.542969 271.898438 52.152344 Z M 271.898438 52.152344 "/>
<path style=" stroke:none;fill-rule:evenodd;fill:rgb(97.647059%,84.313725%,21.568627%);fill-opacity:1;" d="M 242.003906 0 L 245.449219 0 C 263.058594 18.441406 287.574219 34.59375 309.183594 50.871094 C 327.410156 68.15625 345.988281 85.015625 362.65625 104.179688 C 369.210938 116.019531 377.027344 126.378906 381.6875 140.429688 C 387.878906 157.597656 387.9375 176.488281 387.921875 194.484375 L 365.863281 311.898438 L 362.65625 311.898438 L 384.585938 193.328125 C 385.28125 175.6875 384.125 159.867188 377.132812 139.546875 C 372.40625 126.808594 365.648438 116.054688 358.9375 104.308594 C 343.5 86.074219 324.570312 69.285156 307.488281 52.957031 L 301.230469 57.953125 C 299.816406 60.191406 295.078125 61.152344 290.621094 62.222656 L 280.558594 62.855469 L 280.921875 76.390625 L 266.050781 125.894531 L 257.582031 155.949219 C 256.359375 161.175781 253.507812 163.605469 249.550781 164.042969 L 95.300781 158.742188 L 89.875 165.746094 C 88.113281 174.3125 89.730469 177.570312 87.972656 186.136719 C 80.777344 223.929688 76.507812 237.007812 70.636719 259.332031 C 54.601562 273.105469 39.292969 285.25 23.621094 298.207031 C 24.324219 301.492188 23.28125 304.507812 23.984375 307.789062 C 24.296875 309.257812 24.941406 310.433594 25.253906 311.898438 L 22.804688 311.898438 C 22.589844 310.738281 21.976562 309.859375 21.761719 308.699219 C 21.148438 305.375 21.972656 301.125 21.355469 297.796875 C 38.113281 282.863281 51.613281 272.992188 68.28125 258.421875 C 73.96875 234.949219 79.78125 211.023438 84.253906 187.679688 C 86.46875 180.347656 85.699219 174.113281 86.300781 166.015625 L 93.742188 155.949219 L 249.550781 161.472656 C 252.417969 161.589844 253.703125 158.855469 254.890625 155.949219 L 278.652344 76.210938 L 277.835938 60.40625 L 286.90625 60.039062 C 291.015625 59.960938 294.234375 59.472656 298.238281 57.316406 L 305.3125 51.046875 C 280.308594 34.390625 259.203125 17.371094 242.003906 0 Z M 242.003906 0 "/>
<path style=" stroke:none;fill-rule:evenodd;fill:rgb(23.921569%,40.392157%,67.843137%);fill-opacity:1;" d="M 0 38.125 L 6.082031 37.839844 L 10.5 47.332031 L 18.976562 53.132812 L 22.332031 56.644531 L 20.390625 66.386719 L 9.753906 73.359375 L 2.386719 73.292969 L 0 77.628906 C 0.0117188 77.953125 0.0117188 64.785156 0 38.125 Z M 0 38.125 "/>
<path style=" stroke:none;fill-rule:evenodd;fill:rgb(23.921569%,40.392157%,67.843137%);fill-opacity:1;" d="M 73.875 306.925781 L 79.550781 311.898438 L 94.539062 306.847656 L 105.210938 311.898438 L 115.660156 305.875 L 133.085938 311.898438 L 136.65625 308.246094 L 134.007812 299.515625 L 123.214844 294.636719 L 109.636719 294.257812 L 106.082031 291.230469 L 103.609375 295.390625 L 86.984375 298.890625 C 86.707031 299.277344 82.335938 301.957031 73.875 306.925781 Z M 73.875 306.925781 "/>
<path style=" stroke:none;fill-rule:evenodd;fill:rgb(23.921569%,40.392157%,67.843137%);fill-opacity:1;" d="M 150.339844 305.9375 L 147.554688 311.898438 L 161.378906 311.898438 L 157.929688 306.988281 C 156.339844 306.527344 153.808594 306.179688 150.339844 305.9375 Z M 150.339844 305.9375 "/>
<path style=" stroke:none;fill-rule:evenodd;fill:rgb(23.921569%,40.392157%,67.843137%);fill-opacity:1;" d="M 0 17.695312 L 38.441406 13.199219 C 42.746094 10.535156 47.046875 8.136719 51.351562 6.082031 C 53.207031 8.425781 54.585938 9.5625 56.605469 11.210938 L 127.054688 3.789062 C 131.375 4.261719 129.097656 4.363281 139.25 3.421875 C 143.589844 3.082031 147.855469 5.558594 151.160156 6.539062 C 155.339844 6.230469 158.527344 4.921875 162.675781 4.179688 C 166.308594 4.617188 168.683594 6.085938 171.925781 7.722656 L 184.984375 0 L 182.195312 0 L 171.917969 6.140625 C 168.882812 4.609375 165.910156 3.570312 162.8125 2.753906 C 158.886719 3.78125 155.007812 4.757812 151.25 4.90625 C 146.433594 3.136719 143.238281 2.019531 138.691406 1.925781 C 135.972656 1.871094 134.429688 2.519531 131.574219 2.542969 C 129.703125 2.421875 127.71875 2.085938 125.867188 1.972656 C 102.675781 4.667969 80.035156 6.832031 57.308594 9.539062 C 54.777344 8.179688 53.441406 6.136719 51.679688 4.339844 C 46.8125 6.5625 42.121094 9.132812 37.496094 11.835938 L 0 15.757812 C 0 14.371094 0 15.019531 0 17.695312 Z M 0 17.695312 "/>
</g>
</svg>
